<svg id="Capa_1" enable-background="new 0 0 512 512" height="512" viewBox="0 0 512 512" width="512" xmlns="http://www.w3.org/2000/svg"><g><g><path d="m172.536 482.949c3.859 1.96 8.43 1.59 11.928-.967l23.592-17.254 23.591 17.254h.001c2.006 1.467 4.366 2.214 6.742 2.214 1.765 0 3.54-.412 5.185-1.247 3.862-1.96 6.261-5.869 6.261-10.2v-83.957h66.058c4.13 0 7.477-3.347 7.477-7.477s-3.347-7.477-7.477-7.477h-161.185c-4.13 0-7.477 3.347-7.477 7.477s3.347 7.477 7.477 7.477h11.565v83.957c.001 4.332 2.4 8.24 6.262 10.2zm62.347-17.129-22.412-16.392c-1.314-.961-2.864-1.442-4.414-1.442s-3.1.481-4.414 1.442l-22.412 16.392v-77.028h53.653z"/><path d="m484.503 22.432c0-12.369-10.063-22.432-22.432-22.432h-286.022c-18.634 0-36.622 5.482-52.02 15.854-3.425 2.307-4.331 6.954-2.024 10.38 2.308 3.425 6.955 4.33 10.38 2.024 12.919-8.703 28.018-13.303 43.664-13.303h5.915v275.036c0 4.13 3.347 7.477 7.477 7.477s7.477-3.347 7.477-7.477v-275.036h265.153c4.123 0 7.477 3.354 7.477 7.477v301.858h-292.861c-33.058 0-62.176 17.181-78.901 43.081v-274.154c0-14.974 4.24-29.526 12.263-42.08 2.223-3.48 1.204-8.103-2.275-10.327-3.479-2.222-8.102-1.203-10.327 2.275-9.561 14.963-14.615 32.298-14.615 50.132 0 0 .048 329.39.127 329.821 2.553 49.487 43.617 88.962 93.728 88.962h297.533c4.045 0 7.728-2.386 9.382-6.08 1.649-3.685.978-8.011-1.71-11.02-5.93-6.638-11.089-13.959-15.332-21.756-1.974-3.627-6.514-4.967-10.142-2.994-3.627 1.974-4.967 6.514-2.994 10.142 3.181 5.846 6.816 11.453 10.86 16.754h-287.597c-43.507 0-78.901-35.394-78.901-78.9 0-43.507 35.394-78.901 78.901-78.901h287.595c-17.234 22.602-26.623 50.254-26.623 78.901 0 8.902.904 17.797 2.688 26.438.833 4.044 4.787 6.647 8.834 5.812 4.044-.835 6.647-4.79 5.811-8.835-1.578-7.65-2.379-15.528-2.379-23.416 0-28.362 10.398-55.621 29.277-76.754 2.06-2.305 2.923-5.383 2.478-8.354.038-19.991.135-310.605.135-310.605z"/><path d="m304.101 420.704h94.214c4.13 0 7.477-3.347 7.477-7.477s-3.347-7.477-7.477-7.477h-94.214c-4.13 0-7.477 3.347-7.477 7.477s3.347 7.477 7.477 7.477z"/><path d="m232.481 219.896 5.99-15.728h40.157l5.928 15.707c1.129 2.994 3.975 4.839 6.996 4.839.877 0 1.77-.156 2.639-.484 3.863-1.457 5.813-5.772 4.355-9.636l-31.132-82.494c-.025-.068-.053-.137-.081-.205-1.452-3.528-4.853-5.807-8.668-5.807-.004 0-.008 0-.011 0-3.819.005-7.221 2.292-8.666 5.827-.022.055-.045.112-.066.168l-31.417 82.49c-1.47 3.858.467 8.178 4.327 9.648 3.855 1.472 8.179-.465 9.649-4.325zm26.161-68.688 14.343 38.006h-28.818z"/><path d="m362.627 220.711c1.292 2.46 3.842 4.002 6.621 4.002h60.979c4.13 0 7.477-3.347 7.477-7.477s-3.347-7.477-7.477-7.477h-46.739l50.431-73.125c1.578-2.287 1.756-5.261.465-7.721-1.292-2.46-3.842-4.002-6.621-4.002h-56.975c-4.13 0-7.477 3.347-7.477 7.477s3.347 7.477 7.477 7.477h42.735l-50.431 73.125c-1.578 2.287-1.756 5.261-.465 7.721z"/><path d="m344.266 176.44c4.13 0 7.477-3.347 7.477-7.477s-3.347-7.477-7.477-7.477h-27.649c-4.13 0-7.477 3.347-7.477 7.477s3.347 7.477 7.477 7.477z"/></g></g></svg>